<svg width="500" height="400" viewBox="0 0 500 400" fill="none" xmlns="http://www.w3.org/2000/svg">
  <!-- Background elements -->
  <circle cx="250" cy="200" r="150" fill="#E6F7FF" opacity="0.5"/>
  <circle cx="250" cy="200" r="100" fill="#CCF0FF" opacity="0.7"/>
  
  <!-- Question mark decorative elements -->
  <circle cx="180" cy="100" r="15" fill="#0494D4" opacity="0.2"/>
  <circle cx="320" cy="280" r="25" fill="#0494D4" opacity="0.2"/>
  <circle cx="150" cy="320" r="20" fill="#0494D4" opacity="0.2"/>
  <circle cx="380" cy="120" r="18" fill="#0494D4" opacity="0.2"/>
  
  <!-- Main question mark -->
  <path d="M250 260C250 265.523 254.477 270 260 270C265.523 270 270 265.523 270 260C270 254.477 265.523 250 260 250C254.477 250 250 254.477 250 260Z" fill="#0494D4"/>
  <path d="M200 170C200 142.386 222.386 120 250 120C277.614 120 300 142.386 300 170C300 191.539 286.455 209.967 267 217.245V220C267 223.866 263.866 227 260 227H240C236.134 227 233 223.866 233 220V210C233 206.134 236.134 203 240 203H245C258.255 203 269 192.255 269 179C269 165.745 258.255 155 245 155C231.745 155 221 165.745 221 179V180C221 183.866 217.866 187 214 187H207C203.134 187 200 183.866 200 180V170Z" fill="#0494D4"/>
  
  <!-- Document stack with blue accents -->
  <rect x="100" y="230" width="80" height="100" rx="5" fill="#CCF0FF"/>
  <rect x="110" y="245" width="60" height="8" rx="4" fill="#0494D4"/>
  <rect x="110" y="263" width="40" height="8" rx="4" fill="#0494D4"/>
  <rect x="110" y="281" width="50" height="8" rx="4" fill="#0494D4"/>
  <rect x="110" y="299" width="30" height="8" rx="4" fill="#0494D4"/>
  
  <rect x="90" y="240" width="80" height="100" rx="5" fill="#F8FAFC"/>
  <rect x="100" y="255" width="60" height="8" rx="4" fill="#0494D4"/>
  <rect x="100" y="273" width="40" height="8" rx="4" fill="#0494D4"/>
  <rect x="100" y="291" width="50" height="8" rx="4" fill="#0494D4"/>
  <rect x="100" y="309" width="30" height="8" rx="4" fill="#0494D4"/>
  
  <!-- Person with question -->
  <circle cx="380" cy="280" r="30" fill="#CCF0FF"/>
  <circle cx="380" cy="250" r="20" fill="#CCF0FF"/>
  <path d="M370 280C370 274.477 374.477 270 380 270C385.523 270 390 274.477 390 280V300C390 305.523 385.523 310 380 310C374.477 310 370 305.523 370 300V280Z" fill="#CCF0FF"/>
  
  <!-- Speech bubble with question mark -->
  <path d="M330 210C330 193.431 343.431 180 360 180H400C416.569 180 430 193.431 430 210V230C430 246.569 416.569 260 400 260H380L360 280V260C343.431 260 330 246.569 330 230V210Z" fill="white" stroke="#0494D4" stroke-width="3"/>
  <path d="M380 230C380 232.761 382.239 235 385 235C387.761 235 390 232.761 390 230C390 227.239 387.761 225 385 225C382.239 225 380 227.239 380 230Z" fill="#0494D4"/>
  <path d="M370 210C370 201.163 377.163 194 386 194C394.837 194 402 201.163 402 210C402 216.631 397.546 222.179 391.2 224.299V225C391.2 226.105 390.305 227 389.2 227H382.8C381.695 227 380.8 226.105 380.8 225V222C380.8 220.895 381.695 220 382.8 220H384C387.314 220 390 217.314 390 214C390 210.686 387.314 208 384 208C380.686 208 378 210.686 378 214V214.2C378 215.305 377.105 216.2 376 216.2H374C372.895 216.2 372 215.305 372 214.2V210H370Z" fill="#0494D4"/>
  
  <!-- Blue decorative elements -->
  <circle cx="430" cy="320" r="8" fill="#00A3FF" opacity="0.6"/>
  <circle cx="450" cy="300" r="5" fill="#00A3FF" opacity="0.4"/>
  <circle cx="410" cy="340" r="6" fill="#00A3FF" opacity="0.5"/>
  
  <circle cx="70" cy="80" r="8" fill="#00A3FF" opacity="0.6"/>
  <circle cx="50" cy="100" r="5" fill="#00A3FF" opacity="0.4"/>
  <circle cx="90" cy="60" r="6" fill="#00A3FF" opacity="0.5"/>
  
  <!-- Gradient overlay for visual interest -->
  <defs>
    <linearGradient id="paint0_linear" x1="0" y1="0" x2="500" y2="400" gradientUnits="userSpaceOnUse">
      <stop offset="0" stop-color="#0494D4" stop-opacity="0.05"/>
      <stop offset="1" stop-color="#00A3FF" stop-opacity="0"/>
    </linearGradient>
  </defs>
  <rect width="500" height="400" fill="url(#paint0_linear)"/>
</svg> 