<svg xmlns="http://www.w3.org/2000/svg" width="40" height="40" viewBox="0 0 40 40" fill="none">
  <path d="M35 19C35.0032 21.0167 34.5961 23.0106 33.81 24.85C32.8724 27.1077 31.3818 29.0881 29.4831 30.6C27.5843 32.1118 25.3363 33.1065 22.96 33.48C20.9605 33.8238 18.9088 33.8238 16.91 33.48L8 36L10.52 27.09C10.1762 25.0912 10.1762 23.0395 10.52 21.04C10.8935 18.6637 11.8882 16.4157 13.4 14.5169C14.9118 12.6182 16.8923 11.1276 19.15 10.19C20.9895 9.40392 22.9833 8.99681 25 9H26C28.9174 9.11402 31.7153 10.187 33.9892 12.0109C36.263 13.8347 37.886 16.3326 38 19.25V19Z" stroke="#2563EB" stroke-width="2" stroke-linecap="round" stroke-linejoin="round" fill="rgba(37, 99, 235, 0.1)"/>
  <circle cx="16" cy="21" r="1.5" fill="#2563EB"/>
  <circle cx="22" cy="21" r="1.5" fill="#2563EB"/>
  <circle cx="28" cy="21" r="1.5" fill="#2563EB"/>
</svg> 