<svg xmlns="http://www.w3.org/2000/svg" width="28" height="28" viewBox="0 0 28 28" fill="none">
  <path d="M22 15.2297V13C22 7.47715 17.5228 3 12 3C6.47715 3 2 7.47715 2 13V15.2297" stroke="#2563EB" stroke-width="2" stroke-linecap="round" stroke-linejoin="round"/>
  <path d="M18 16V18C18 20.2091 16.2091 22 14 22C11.7909 22 10 20.2091 10 18V16" stroke="#2563EB" stroke-width="2" stroke-linecap="round" stroke-linejoin="round"/>
  <path d="M3 13H7V20C7 21.1046 6.10457 22 5 22C3.89543 22 3 21.1046 3 20V13Z" stroke="#2563EB" stroke-width="2" stroke-linejoin="round" fill="rgba(37, 99, 235, 0.1)"/>
  <path d="M25 13H21V20C21 21.1046 21.8954 22 23 22C24.1046 22 25 21.1046 25 20V13Z" stroke="#2563EB" stroke-width="2" stroke-linejoin="round" fill="rgba(37, 99, 235, 0.1)"/>
</svg> 