<?xml version="1.0" encoding="UTF-8"?>
<svg width="24px" height="24px" viewBox="0 0 24 24" version="1.1" xmlns="http://www.w3.org/2000/svg">
    <g stroke="none" stroke-width="1" fill="none" fill-rule="evenodd">
        <path d="M12,2 L2,6 L2,8 L22,8 L22,6 L12,2 Z M7,10 L7,20 L5,20 L5,10 L7,10 Z M13,10 L13,20 L11,20 L11,10 L13,10 Z M19,10 L19,20 L17,20 L17,10 L19,10 Z M22,22 L2,22 L2,24 L22,24 L22,22 Z" fill="#2A64AD" fill-rule="nonzero" transform="translate(12.000000, 13.000000) scale(1, -1) translate(-12.000000, -13.000000)"></path>
    </g>
</svg> 