<?xml version="1.0" encoding="UTF-8"?>
<svg width="24px" height="24px" viewBox="0 0 24 24" version="1.1" xmlns="http://www.w3.org/2000/svg">
    <g stroke="none" stroke-width="1" fill="none" fill-rule="evenodd">
        <path d="M19,3 L5,3 C3.9,3 3,3.9 3,5 L3,19 C3,20.1 3.9,21 5,21 L19,21 C20.1,21 21,20.1 21,19 L21,5 C21,3.9 20.1,3 19,3 Z M16,13 L13,13 L13,16 C13,16.55 12.55,17 12,17 C11.45,17 11,16.55 11,16 L11,13 L8,13 C7.45,13 7,12.55 7,12 C7,11.45 7.45,11 8,11 L11,11 L11,8 C11,7.45 11.45,7 12,7 C12.55,7 13,7.45 13,8 L13,11 L16,11 C16.55,11 17,11.45 17,12 C17,12.55 16.55,13 16,13 Z" fill="#2A64AD" fill-rule="nonzero"></path>
    </g>
</svg> 