<svg width="64" height="64" viewBox="0 0 64 64" fill="none" xmlns="http://www.w3.org/2000/svg">
  <rect width="64" height="64" rx="16" fill="url(#paint0_linear)" fill-opacity="0.1"/>
  <path d="M42 36.8889C40.6667 35.5556 37.7778 36.8889 36.4444 38.2222C35.1111 39.5556 30.4444 36.6667 27.5556 33.7778C24.6667 30.8889 21.7778 26.2222 23.1111 24.8889C24.4444 23.5556 25.7778 20.6667 24.4444 19.3333C23.1111 18 18.4444 18 17.1111 19.3333C15.7778 20.6667 15.7778 28.4444 20.4444 34.7778C25.1111 41.1111 31.7778 42.6667 34.6667 44C37.5556 45.3333 44 46.6667 46 44C48 41.3333 43.3333 38.2222 42 36.8889Z" stroke="#0494D4" stroke-width="2.5" stroke-linecap="round" stroke-linejoin="round"/>
  <path d="M36 26C38.194 26 40 24.194 40 22" stroke="#0494D4" stroke-width="2.5" stroke-linecap="round" stroke-linejoin="round"/>
  <path d="M36 30C40.418 30 44 26.418 44 22" stroke="#0494D4" stroke-width="2.5" stroke-linecap="round" stroke-linejoin="round"/>
  <circle cx="36" cy="22" r="2" fill="#0494D4"/>
  <defs>
    <linearGradient id="paint0_linear" x1="0" y1="0" x2="64" y2="64" gradientUnits="userSpaceOnUse">
      <stop stop-color="#0494D4"/>
      <stop offset="1" stop-color="#00A3FF"/>
    </linearGradient>
  </defs>
</svg> 