<svg width="64" height="64" viewBox="0 0 64 64" fill="none" xmlns="http://www.w3.org/2000/svg">
  <rect width="64" height="64" rx="16" fill="url(#paint0_linear)" fill-opacity="0.1"/>
  <path d="M32 20C29.791 20 28 21.791 28 24C28 26.209 29.791 28 32 28C34.209 28 36 26.209 36 24C36 21.791 34.209 20 32 20Z" stroke="#0494D4" stroke-width="2.5" stroke-linecap="round" stroke-linejoin="round"/>
  <path d="M24 44V40C24 36.686 26.686 34 30 34H34C37.314 34 40 36.686 40 40V44" stroke="#0494D4" stroke-width="2.5" stroke-linecap="round" stroke-linejoin="round"/>
  <path d="M22 32L26 36" stroke="#0494D4" stroke-width="2.5" stroke-linecap="round" stroke-linejoin="round"/>
  <path d="M42 32L38 36" stroke="#0494D4" stroke-width="2.5" stroke-linecap="round" stroke-linejoin="round"/>
  <path d="M32 28V34" stroke="#0494D4" stroke-width="2.5" stroke-linecap="round" stroke-linejoin="round"/>
  <defs>
    <linearGradient id="paint0_linear" x1="0" y1="0" x2="64" y2="64" gradientUnits="userSpaceOnUse">
      <stop stop-color="#0494D4"/>
      <stop offset="1" stop-color="#00A3FF"/>
    </linearGradient>
  </defs>
</svg> 