<svg xmlns="http://www.w3.org/2000/svg" width="32" height="32" viewBox="0 0 32 32" fill="none">
  <path d="M16 20C18.2091 20 20 18.2091 20 16C20 13.7909 18.2091 12 16 12C13.7909 12 12 13.7909 12 16C12 18.2091 13.7909 20 16 20Z" stroke="#2563EB" stroke-width="2" stroke-linecap="round" stroke-linejoin="round" fill="rgba(37, 99, 235, 0.1)"/>
  <path d="M25.6 20C25.3 20.8 25.6 21.7 26.3 22.2L26.4 22.3C27.0 22.9 27.0 23.8 26.4 24.4L24.4 26.4C23.8 27.0 22.9 27.0 22.3 26.4L22.2 26.3C21.7 25.6 20.8 25.3 20 25.6C19.2 25.9 18.7 26.7 18.7 27.6V27.8C18.7 28.5 18.2 29 17.5 29H14.5C13.8 29 13.3 28.5 13.3 27.8V27.6C13.3 26.7 12.8 25.9 12 25.6C11.2 25.3 10.3 25.6 9.8 26.3L9.7 26.4C9.1 27.0 8.2 27.0 7.6 26.4L5.6 24.4C5.0 23.8 5.0 22.9 5.6 22.3L5.7 22.2C6.4 21.7 6.7 20.8 6.4 20C6.1 19.2 5.3 18.7 4.4 18.7H4.2C3.5 18.7 3 18.2 3 17.5V14.5C3 13.8 3.5 13.3 4.2 13.3H4.4C5.3 13.3 6.1 12.8 6.4 12C6.7 11.2 6.4 10.3 5.7 9.8L5.6 9.7C5.0 9.1 5.0 8.2 5.6 7.6L7.6 5.6C8.2 5.0 9.1 5.0 9.7 5.6L9.8 5.7C10.3 6.4 11.2 6.7 12 6.4H12.2C13 6.1 13.5 5.3 13.5 4.4V4.2C13.5 3.5 14 3 14.7 3H17.7C18.4 3 18.9 3.5 18.9 4.2V4.4C18.9 5.3 19.4 6.1 20.2 6.4H20.4C21.2 6.7 22.1 6.4 22.6 5.7L22.7 5.6C23.3 5.0 24.2 5.0 24.8 5.6L26.8 7.6C27.4 8.2 27.4 9.1 26.8 9.7L26.7 9.8C26.0 10.3 25.7 11.2 26.0 12C26.3 12.8 27.1 13.3 28.0 13.3H28.2C28.9 13.3 29.4 13.8 29.4 14.5V17.5C29.4 18.2 28.9 18.7 28.2 18.7H28.0C27.1 18.7 26.3 19.2 26.0 20Z" stroke="#2563EB" stroke-width="2" stroke-linecap="round" stroke-linejoin="round"/>
</svg> 