<?xml version="1.0" encoding="UTF-8"?>
<svg width="24px" height="24px" viewBox="0 0 24 24" version="1.1" xmlns="http://www.w3.org/2000/svg">
    <g stroke="none" stroke-width="1" fill="none" fill-rule="evenodd">
        <path d="M12,2 C6.5,2 2,6.5 2,12 C2,17.5 6.5,22 12,22 C17.5,22 22,17.5 22,12 C22,6.5 17.5,2 12,2 Z M16.3,15.45 L11.4,12.45 C11.15,12.3 11,12.05 11,11.75 L11,6.5 C11,6.22 11.22,6 11.5,6 L12.5,6 C12.78,6 13,6.22 13,6.5 L13,11.15 L17.2,13.74 C17.44,13.89 17.51,14.2 17.36,14.44 L16.86,15.24 C16.71,15.47 16.4,15.55 16.3,15.45 Z" fill="#2A64AD" fill-rule="nonzero"></path>
    </g>
</svg> 